<?xml version="1.0" standalone="no"?>
<!DOCTYPE svg PUBLIC "-//W3C//DTD SVG 20010904//EN"
 "http://www.w3.org/TR/2001/REC-SVG-20010904/DTD/svg10.dtd">
<svg version="1.0" xmlns="http://www.w3.org/2000/svg"
 width="719.000000pt" height="1278.000000pt" viewBox="0 0 719.000000 1278.000000"
 preserveAspectRatio="xMidYMid meet">

<g transform="translate(0.000000,1278.000000) scale(0.100000,-0.100000)"
fill="#000000" stroke="none">
<path d="M3536 7939 c-534 -74 -975 -460 -1155 -1011 -65 -200 -85 -330 -84
-548 0 -159 4 -203 27 -315 73 -363 224 -647 472 -886 191 -183 407 -299 665
-355 113 -24 324 -29 441 -10 439 72 815 358 1026 781 124 246 176 474 176
765 0 247 -36 432 -124 651 -222 551 -708 914 -1250 933 -69 3 -156 1 -194 -5z
m308 -20 c455 -60 865 -375 1081 -832 123 -260 181 -575 157 -850 -37 -421
-181 -746 -452 -1018 -215 -216 -429 -333 -699 -383 -106 -20 -322 -21 -433
-1 -160 28 -370 112 -498 198 -151 103 -308 262 -413 420 -363 546 -363 1316
0 1861 83 124 245 294 360 376 260 184 591 269 897 229z"/>
<path d="M3657 7535 c-4 -187 -7 -498 -7 -692 0 -193 -3 -358 -6 -367 -10 -26
-29 -18 -75 32 -160 176 -813 843 -807 825 5 -18 229 -277 457 -528 391 -430
405 -447 396 -475 -6 -20 -195 -229 -369 -408 -69 -72 -84 -83 -106 -78 -73
17 -139 18 -188 2 -76 -26 -78 -33 -21 -101 27 -33 49 -69 49 -80 0 -12 -30
-49 -71 -90 -69 -68 -129 -146 -163 -212 -20 -40 -20 -43 0 -43 20 0 107 75
210 180 51 53 85 80 100 80 15 0 41 -21 79 -65 32 -36 61 -62 66 -59 16 10 39
75 45 128 4 34 1 74 -10 115 -9 34 -16 71 -16 81 0 29 380 450 406 450 12 0
14 -41 12 -276 -3 -261 -4 -277 -22 -288 -60 -34 -109 -85 -147 -151 -48 -83
-39 -176 31 -330 28 -61 88 -150 96 -143 2 3 -6 24 -17 49 -29 59 -39 91 -54
181 -17 98 -6 144 36 153 65 14 64 16 63 -207 0 -112 4 -209 9 -215 12 -16 43
-17 53 -1 4 6 11 97 15 202 5 105 11 197 14 204 2 7 23 12 52 12 30 0 60 7 81
20 28 18 32 25 32 65 0 38 -6 51 -36 85 -20 22 -53 48 -73 57 -75 34 -71 16
-71 314 0 178 4 270 11 274 5 4 68 -53 138 -127 70 -73 159 -167 199 -208 39
-41 72 -84 72 -95 0 -11 -11 -42 -25 -70 -27 -56 -32 -125 -12 -168 12 -27 73
-67 101 -67 9 0 19 -7 23 -15 4 -12 18 -4 59 35 30 29 59 50 64 48 5 -2 55
-48 110 -102 84 -84 105 -100 135 -102 20 -2 41 -6 48 -10 7 -4 -22 29 -64 72
-121 126 -169 185 -169 206 0 10 33 54 73 96 103 108 118 142 62 142 -21 0
-24 -5 -27 -41 -2 -27 -9 -46 -21 -53 -22 -14 -33 2 -43 57 -12 76 -98 98
-200 51 l-57 -26 -38 39 c-21 21 -123 130 -228 243 -162 176 -188 207 -179
224 6 10 60 73 122 140 61 67 158 175 216 240 58 66 148 167 200 225 181 204
340 391 332 391 -8 0 -145 -139 -282 -286 -36 -38 -97 -103 -135 -144 -39 -41
-131 -140 -205 -219 -254 -272 -258 -276 -269 -266 -6 6 -14 262 -21 665 -7
360 -15 680 -19 710 -4 32 -10 -87 -14 -285z m713 -1665 c13 -9 13 -11 0 -20
-8 -6 -24 -8 -35 -6 -27 7 -53 -9 -31 -17 9 -4 16 -11 16 -17 0 -15 -27 -12
-56 7 l-25 16 27 24 c28 24 77 30 104 13z m48 -81 c3 -43 -29 -96 -64 -105
-29 -7 -44 7 -44 42 0 23 78 106 95 101 5 -2 11 -19 13 -38z m-1318 21 c0 -5
-18 -10 -40 -10 -23 0 -53 -6 -69 -14 -34 -18 -62 -6 -42 18 10 12 32 16 82
16 39 0 69 -4 69 -10z m-50 -49 c0 -5 -8 -11 -17 -14 -10 -2 -26 -8 -37 -12
-16 -7 -17 -6 -7 13 11 22 61 32 61 13z m1110 -66 c0 -8 -4 -15 -9 -15 -5 0
-14 7 -21 15 -10 13 -9 15 9 15 12 0 21 -6 21 -15z m-940 -44 c11 -22 4 -73
-17 -114 -17 -33 -36 -26 -76 27 -30 39 -34 56 -12 56 8 0 15 -4 15 -10 0 -5
5 -10 11 -10 8 0 8 4 2 13 -6 6 -13 20 -17 31 -5 15 -2 17 19 12 14 -4 25 -2
25 4 0 18 39 11 50 -9z m922 -27 c-22 -17 -33 -17 -26 0 3 8 0 17 -6 21 -9 6
-9 10 1 16 8 5 20 2 31 -8 17 -15 17 -17 0 -29z m109 26 c26 -14 25 -64 -2
-91 -15 -15 -30 -19 -66 -17 -26 2 -48 8 -50 14 -4 11 77 104 91 104 4 0 16
-5 27 -10z m-481 -32 c33 -23 63 -70 75 -119 9 -35 -7 -39 -172 -39 -130 0
-132 0 -152 -26 -12 -15 -21 -35 -21 -46 0 -11 -5 -29 -11 -40 -27 -51 -40 50
-15 120 22 62 63 119 104 146 52 34 145 36 192 4z m-800 -53 c0 -14 -4 -25
-10 -25 -5 0 -10 11 -10 25 0 14 5 25 10 25 6 0 10 -11 10 -25z"/>
<path d="M4103 5443 c-20 -8 -15 -40 7 -46 13 -3 31 3 48 19 26 22 26 23 5 24
-12 0 -27 2 -35 4 -7 3 -19 2 -25 -1z"/>
</g>
</svg>
